PathFileType	4	(X/Y/Z)	 s02c0101.trc
DataRate	CameraRate	NumFrames	NumMarkers	Units	OrigDataRate	OrigDataStartFrame	OrigNumFrames
200	200	4	51	mm	200	251	2000
Frame#	Time	racr			lacr			c7			jug			rlel			rdr			llel			ldr			s2			lic			ric			lasi			rasi			rpsi			lpsi			rgt			lgt			rth1			rth2			rth3			rth4			rlfc			rmfc			rsh1			rsh2			rsh3			rsh4			rlmal			rmmal			rtoe			rmt5			rmt1			lth1			lth2			lth4			lth3			llfc			lmfc			lsh1			lsh2			lsh3			lsh4			llmal			lmmal			lcal			ltoe			lmt1			lmt5			SBIKE			LBIKE			RBIKE			
		X1	Y1	Z1	X2	Y2	Z2	X3	Y3	Z3	X4	Y4	Z4	X5	Y5	Z5	X6	Y6	Z6	X7	Y7	Z7	X8	Y8	Z8	X9	Y9	Z9	X10	Y10	Z10	X11	Y11	Z11	X12	Y12	Z12	X13	Y13	Z13	X14	Y14	Z14	X15	Y15	Z15	X16	Y16	Z16	X17	Y17	Z17	X18	Y18	Z18	X19	Y19	Z19	X20	Y20	Z20	X21	Y21	Z21	X22	Y22	Z22	X23	Y23	Z23	X24	Y24	Z24	X25	Y25	Z25	X26	Y26	Z26	X27	Y27	Z27	X28	Y28	Z28	X29	Y29	Z29	X30	Y30	Z30	X31	Y31	Z31	X32	Y32	Z32	X33	Y33	Z33	X34	Y34	Z34	X35	Y35	Z35	X36	Y36	Z36	X37	Y37	Z37	X38	Y38	Z38	X39	Y39	Z39	X40	Y40	Z40	X41	Y41	Z41	X42	Y42	Z42	X43	Y43	Z43	X44	Y44	Z44	X45	Y45	Z45	X46	Y46	Z46	X47	Y47	Z47	X48	Y48	Z48	X49	Y49	Z49	X50	Y50	Z50	X51	Y51	Z51	
251	1.2550	520.808822	1302.909199	-118.085252	551.058313	1291.668068	-439.487923	525.535767	1324.711878	-286.823917	479.452698	1193.329583	-290.995249	558.065314	1025.032576	-73.622698	724.147889	871.979183	-118.136756	564.651564	1023.268639	-548.445197	698.578525	838.435109	-493.841503	8.832207	1126.488026	-318.298475	150.105121	1126.204989	-459.374239	142.565397	1132.144655	-177.262312	188.865236	1089.518716	-436.898793	194.962276	1102.174174	-201.481977	35.149566	1171.547082	-276.996844	32.435148	1169.963411	-364.379638	118.930504	1052.117643	-143.355149	93.721798	1036.524580	-497.846948	201.659649	1002.404336	-133.012364	280.362959	962.726813	-136.440436	330.510784	896.975468	-113.633883	300.757505	984.567802	-160.325843	415.866284	779.485740	-148.389591	407.019203	760.043196	-257.488847	412.978111	666.652461	-129.897834	417.551376	578.911317	-147.362571	381.362418	500.672165	-142.494392	427.529163	579.806906	-185.964824	341.402922	386.924196	-148.220945	341.397453	402.398695	-229.875683	559.305571	358.467059	-184.553235	453.798756	329.191210	-123.160487	476.798833	349.234184	-232.176241	211.468349	955.521322	-502.846723	285.522439	910.336822	-498.437389	308.091549	932.004704	-479.357208	327.951139	832.105850	-503.507770	382.809610	748.135383	-484.215782	375.832260	715.330782	-380.073907	322.345219	661.379930	-504.087141	274.035244	591.541792	-486.968239	194.858443	548.760306	-493.065207	288.169257	580.431417	-450.016672	101.301012	482.126275	-486.378996	117.955007	472.807550	-403.864119	20.133658	474.839426	-441.264282	236.955436	285.905430	-433.549592	173.398400	336.158832	-389.296686	142.644750	331.126131	-496.652581	-161.344399	861.207687	-308.035235	37.330738	86.929105	-514.274208	33.897159	83.448238	-114.084302	
252	1.2600	520.962648	1302.817398	-118.182956	550.917496	1291.576248	-439.770676	525.602349	1324.627386	-286.980667	479.509998	1193.249168	-291.148140	557.968602	1024.892258	-73.888764	724.183308	871.992863	-118.234078	564.614829	1023.151475	-548.630168	698.590878	838.420978	-493.854476	8.551914	1126.477090	-318.969267	149.921907	1126.368226	-459.303730	142.714247	1132.003486	-177.209931	188.746070	1089.822759	-436.831995	195.099428	1101.960935	-201.433166	35.244771	1171.507830	-276.740062	32.391809	1170.037260	-364.128203	119.028611	1051.796379	-143.407123	93.673017	1036.906403	-497.909414	201.536747	1001.630437	-132.947776	280.022937	961.471069	-136.250909	329.761686	895.456598	-113.424871	300.613150	983.207458	-160.143024	414.229637	777.243133	-148.438290	405.529293	757.955543	-257.060547	411.840514	664.763207	-129.622224	416.722505	576.878943	-147.473484	381.095010	498.637256	-142.333488	426.753773	578.019273	-185.735243	341.688991	384.605173	-148.215401	341.637464	400.233805	-229.784660	559.583778	355.180428	-184.641272	453.943549	326.389630	-123.176543	477.041503	346.410790	-232.187815	211.689649	956.471825	-503.009103	286.017412	911.675581	-498.681662	308.449804	933.374770	-479.541663	328.799690	833.666478	-503.898626	383.806713	749.736363	-484.249966	377.015299	716.526903	-380.474805	323.424955	663.230347	-504.448332	274.838860	593.636716	-487.288709	195.490590	551.226051	-493.255123	288.923806	582.451621	-450.229350	101.769753	484.963558	-486.451376	118.572162	475.396543	-404.146918	20.582354	477.849377	-441.317203	236.987926	288.482854	-433.572705	173.565889	339.030618	-389.319211	142.700803	333.961770	-496.712228	-161.286357	861.232182	-308.020015	37.326309	86.913360	-514.281630	33.882411	83.444167	-114.085291	
253	1.2650	521.123586	1302.715123	-118.308605	550.781331	1291.522906	-440.065846	525.707640	1324.521052	-287.173834	479.582497	1193.170506	-291.277206	557.804139	1024.728890	-74.188138	724.200415	872.022960	-118.327754	564.586297	1023.062184	-548.753009	698.506292	838.436840	-493.583072	8.603571	1126.479724	-318.766463	149.746533	1126.499710	-459.244572	142.841767	1131.829985	-177.197062	188.644707	1090.115987	-436.726757	195.203722	1101.746847	-201.351572	35.395950	1171.428499	-276.570922	32.364461	1170.063381	-363.921045	119.137457	1051.435372	-143.464528	93.590120	1037.318124	-497.953971	201.496132	1000.880640	-132.790491	279.683673	960.128803	-136.038368	328.927680	893.773994	-113.255488	300.454110	981.803745	-159.800128	412.799577	775.317587	-148.142112	404.047434	756.015828	-256.406225	410.521071	662.806611	-129.377406	415.995524	574.999747	-147.201376	380.674243	496.574130	-142.140840	425.986881	576.236553	-185.472040	341.983574	382.319040	-148.177351	343.217711	395.880367	-233.658629	559.838813	351.879536	-184.685521	454.047659	323.585205	-123.167077	477.214730	343.582729	-232.223030	211.917829	957.369056	-503.153854	286.508764	913.010986	-498.933117	308.788049	934.818555	-479.742398	329.765340	835.280209	-504.297695	385.133766	751.533997	-484.740300	377.658158	716.916953	-380.619304	324.555347	665.269094	-504.891909	275.750195	595.810481	-487.663128	196.163815	553.782900	-493.424495	289.869740	584.497518	-450.616603	102.195327	487.865657	-486.554470	119.058030	478.391763	-404.218277	21.042541	481.018257	-441.371633	237.068326	291.230205	-433.564622	173.786077	341.816404	-389.357585	142.867814	336.827410	-496.684125	-161.315838	861.301872	-307.888157	37.325375	86.909228	-514.294596	33.884604	83.449541	-114.102879	
254	1.2700	521.306130	1302.592229	-118.433456	550.628252	1291.511566	-440.389586	525.780957	1324.434195	-287.366144	479.597353	1193.089226	-291.398434	557.668459	1024.585378	-74.393568	724.202871	872.034903	-118.407169	564.573872	1022.965332	-548.815317	698.537837	838.422877	-493.583569	8.998889	1126.456540	-317.617286	149.565561	1126.599626	-459.155552	142.974767	1131.595785	-177.120490	188.530735	1090.439022	-436.635852	195.329616	1101.480288	-201.215389	35.522831	1171.293711	-276.383147	32.304507	1170.062123	-363.697207	119.205543	1050.997371	-143.509744	93.537777	1037.692167	-497.984643	201.380511	999.991562	-132.651696	279.331427	958.861923	-135.822500	328.136401	892.030125	-113.077847	300.288560	980.339618	-159.493141	411.289126	773.357265	-147.929934	402.679472	753.990955	-255.971670	409.249195	660.907881	-129.083523	415.087126	573.095415	-146.976698	380.080005	494.537931	-141.903058	425.137304	574.526522	-184.969188	342.253891	380.027470	-148.131081	342.128008	395.631947	-229.568164	560.064527	348.480516	-184.713783	454.145039	320.715651	-123.242750	477.378701	340.665958	-232.268782	212.177647	958.262343	-503.299660	287.039926	914.331007	-499.207931	309.194292	936.311962	-479.976652	330.724718	836.856271	-504.702752	386.579708	753.316981	-485.175970	377.962873	717.213909	-380.878341	325.743633	667.253278	-505.239965	276.628027	597.984507	-487.902247	196.893310	556.251162	-493.630424	290.780297	586.622789	-450.950811	102.706085	490.783579	-486.632489	119.573932	481.268139	-404.347710	21.512790	484.092324	-441.312810	237.187597	293.897213	-433.589659	174.075225	344.786704	-389.415489	143.051548	339.628766	-496.696669	-161.312807	861.216114	-308.115246	37.323802	86.905261	-514.291880	33.889359	83.463049	-114.103505	
